<svg xmlns="http://www.w3.org/2000/svg" width="190.000" height="23.251" viewBox="0 0 190.000 23.251" fill="none">
  <path d="M 42.045 0 C 50.831 0 51.543 23.251 41.943 23.251 C 35.396 23.251 30.342 11.659 21.624 11.659 C 13.72 11.659 9.174 23.251 3.78 23.251 C -6.633 23.25 6.698 0.735 16.875 0.735 C 21.726 0.736 23.489 7.784 29.493 7.784 C 35.404 7.784 37.666 0.241 41.845 0.006 L 42.045 0 Z M 100.733 6.823 C 105.027 6.823 108.115 9.926 108.116 14.854 C 108.116 19.781 105.027 22.854 100.733 22.854 C 96.44 22.854 93.35 19.781 93.35 14.854 C 93.35 9.926 96.44 6.823 100.733 6.823 Z M 128.636 6.823 C 133.239 6.823 135.307 10.443 135.307 14.367 L 135.307 15.371 L 123.817 15.371 C 123.941 18.899 125.824 20.847 128.79 20.847 C 130.891 20.847 132.157 19.842 132.806 17.986 L 135.215 17.986 C 134.504 21.241 131.817 22.854 128.79 22.854 C 124.404 22.854 121.315 19.903 121.315 14.914 C 121.316 9.926 124.497 6.824 128.636 6.823 Z M 152.648 6.823 C 157.251 6.823 159.321 10.443 159.321 14.367 L 159.321 15.371 L 147.83 15.371 C 147.954 18.899 149.838 20.847 152.803 20.847 C 154.903 20.847 156.169 19.842 156.818 17.986 L 159.228 17.986 C 158.517 21.241 155.83 22.854 152.803 22.854 C 148.417 22.854 145.328 19.903 145.328 14.914 C 145.328 10.081 148.314 7.019 152.264 6.832 L 152.648 6.823 Z M 168.265 6.823 C 171.848 6.823 174.041 8.345 174.35 11.234 L 171.972 11.234 C 171.786 9.683 170.396 8.77 168.265 8.77 C 166.196 8.77 164.866 9.774 164.866 11.265 C 164.866 12.572 165.793 13.12 167.585 13.454 L 170.675 14.032 L 170.675 14.033 C 173.207 14.52 174.69 15.737 174.69 18.201 C 174.69 20.878 172.126 22.854 168.636 22.854 C 164.93 22.854 162.15 21.242 161.872 17.957 L 164.343 17.957 C 164.527 20.056 166.505 20.938 168.604 20.938 C 170.736 20.938 172.281 19.965 172.281 18.322 C 172.281 17.197 171.538 16.466 169.562 16.102 L 166.813 15.554 C 164.311 15.097 162.488 14.002 162.488 11.417 C 162.488 8.831 164.836 6.823 168.265 6.823 Z M 183.575 6.823 C 187.157 6.823 189.35 8.345 189.659 11.234 L 187.28 11.234 C 187.094 9.683 185.706 8.77 183.574 8.77 C 181.505 8.77 180.177 9.774 180.177 11.265 C 180.177 12.572 181.104 13.12 182.896 13.454 L 185.985 14.033 C 188.518 14.52 190 15.738 190 18.201 C 190 20.878 187.436 22.854 183.945 22.854 C 180.238 22.854 177.458 21.242 177.181 17.957 L 179.65 17.957 C 179.836 20.056 181.783 20.938 183.915 20.938 C 186.046 20.938 187.59 19.965 187.59 18.322 C 187.59 17.197 186.848 16.466 184.872 16.102 L 182.123 15.554 C 179.621 15.097 177.799 14.002 177.799 11.417 C 177.799 8.831 180.146 6.823 183.575 6.823 Z M 114.604 7.188 L 118.682 7.188 L 118.682 9.104 L 114.573 9.104 L 114.573 18.443 C 114.573 20.056 115.408 20.604 116.829 20.604 C 117.415 20.603 118.096 20.542 119.084 20.238 L 119.084 22.307 C 117.941 22.641 117.044 22.732 116.364 22.732 C 113.522 22.732 112.071 21.393 112.071 18.564 L 112.071 9.104 L 109.785 9.104 L 109.785 7.188 L 112.071 7.188 L 112.071 3.294 L 114.604 3.294 L 114.604 7.188 Z M 86.84 18.108 L 86.901 18.108 L 86.901 0.77 L 89.465 0.77 L 89.465 22.489 L 86.994 22.489 L 74.452 3.963 L 74.391 3.963 L 74.391 22.489 L 71.797 22.489 L 71.797 0.77 L 75.07 0.77 L 86.84 18.108 Z M 141.599 22.489 L 139.035 22.489 L 139.035 0.101 L 141.599 0.101 L 141.599 22.489 Z M 100.733 8.86 C 97.707 8.86 95.884 11.173 95.884 14.854 C 95.884 18.534 97.706 20.815 100.733 20.815 C 103.76 20.815 105.582 18.534 105.582 14.854 C 105.582 11.173 103.76 8.86 100.733 8.86 Z M 128.637 8.86 C 126.196 8.86 124.342 10.413 123.91 13.546 L 132.806 13.546 C 132.744 10.9 131.417 8.86 128.637 8.86 Z M 152.648 8.86 C 150.208 8.861 148.355 10.413 147.923 13.546 L 156.819 13.546 C 156.757 10.9 155.429 8.86 152.648 8.86 Z" fill="currentColor" fill-rule="nonzero"></path>
</svg>